# xmcd CD database file
#
# Track frame offsets:
#	150
#	15705
#	33605
#	53267
#	70583
#	84953
#	109023
#	119593
#	136178
#	152598
#	170870
#	190070
#	203345
#	221568
#	235890
#
# Disc length: 3440 seconds
#
# Revision: 0
# Processed by: cddbd v1.5.2PL0 Copyright (c) Steve Scherf et al.
# Submitted via: CDex 1.51
#
DISCID=bf0d6e0f
DTITLE=USAir - The Old South Dixieland Band
DYEAR=1994
DGENRE=Jazz
TTITLE0=The Washington and Lee Swing
TTITLE1=Indiana
TTITLE2=Georgia on My Mind
TTITLE3=Hello Dolly
TTITLE4=Bei Mir Bist Du Schoen
TTITLE5=Just a Closer Walk with Thee
TTITLE6=Singin the Blues
TTITLE7=Bill Bailey
TTITLE8=I've Found a New Baby
TTITLE9=When Your're Smiling
TTITLE10=Tin Roof Blues
TTITLE11=Bourbon Street Parade
TTITLE12=Stars Fell on Alabama
TTITLE13=Fidgety Feet
TTITLE14=When the Saints Go Marching In
EXTD=YEAR: 1994
EXTT0=
EXTT1=
EXTT2=
EXTT3=
EXTT4=
EXTT5=
EXTT6=
EXTT7=
EXTT8=
EXTT9=
EXTT10=
EXTT11=
EXTT12=
EXTT13=
EXTT14=
PLAYORDER=
